<?xml version="1.0" standalone="no"?>
<!DOCTYPE svg PUBLIC "-//W3C//DTD SVG 20010904//EN"
 "http://www.w3.org/TR/2001/REC-SVG-20010904/DTD/svg10.dtd">
<svg version="1.0" xmlns="http://www.w3.org/2000/svg"
 width="1000.000000pt" height="1000.000000pt" viewBox="0 0 1000.000000 1000.000000"
 preserveAspectRatio="xMidYMid meet">

<g transform="translate(0.000000,1000.000000) scale(0.100000,-0.100000)"
fill="#000000" stroke="none">
<path d="M7050 9410 c0 -5 -11 -10 -25 -10 -14 0 -25 -6 -25 -12 0 -9 -24 -13
-82 -15 -49 -1 -84 -6 -86 -12 -2 -6 -28 -11 -57 -11 -33 0 -55 -5 -58 -12 -4
-10 -8 -9 -17 2 -9 11 -13 12 -17 3 -2 -7 -11 -13 -19 -13 -8 0 -14 -7 -14
-15 0 -9 -9 -15 -25 -15 -14 0 -25 5 -25 10 0 6 -11 10 -25 10 -14 0 -25 -4
-25 -10 0 -6 -30 -10 -71 -10 -38 0 -68 -4 -65 -9 7 -10 -51 -21 -116 -21 -27
0 -48 -4 -48 -10 0 -6 -27 -10 -61 -10 -33 0 -58 -4 -55 -9 3 -5 -26 -12 -64
-16 -39 -4 -70 -11 -70 -16 0 -5 -31 -9 -70 -9 -38 0 -70 -4 -70 -9 0 -6 -20
-13 -45 -17 -25 -3 -45 -10 -45 -15 0 -5 -45 -9 -100 -9 -60 0 -100 -4 -100
-10 0 -5 -15 -10 -34 -10 -18 0 -39 -7 -46 -15 -9 -10 -32 -15 -75 -15 -35 0
-65 -4 -67 -9 -1 -5 -34 -11 -73 -14 -38 -2 -71 -10 -73 -16 -2 -6 -26 -11
-53 -11 -27 0 -49 -4 -49 -10 0 -5 -11 -10 -24 -10 -14 0 -28 5 -31 10 -8 13
-42 13 -47 0 -1 -5 -31 -13 -65 -16 -35 -4 -63 -11 -63 -15 0 -5 -13 -9 -30
-9 -19 0 -40 -10 -60 -30 -29 -29 -30 -32 -30 -125 0 -57 4 -95 10 -95 14 0
12 -27 -2 -33 -10 -4 -10 -6 0 -6 6 -1 12 -8 12 -16 0 -7 8 -19 18 -25 12 -8
13 -13 5 -16 -15 -7 -18 -74 -3 -74 6 0 10 -20 10 -44 0 -26 5 -46 13 -49 10
-4 10 -6 0 -6 -14 -1 -18 -31 -4 -31 5 0 11 -18 15 -40 3 -22 11 -40 16 -40 6
0 10 -35 10 -84 0 -46 3 -86 8 -88 12 -5 42 -68 32 -68 -6 0 -10 -13 -10 -30
0 -16 5 -30 10 -30 6 0 10 -26 10 -59 0 -39 4 -61 13 -63 8 -3 13 -37 15 -111
2 -59 8 -107 13 -107 5 0 9 -18 9 -39 0 -22 5 -41 12 -43 6 -2 13 -31 16 -66
2 -34 8 -62 13 -62 5 0 9 -22 9 -50 0 -27 4 -50 9 -50 4 0 11 -33 14 -72 4
-40 11 -74 17 -76 5 -2 10 -34 10 -73 0 -38 4 -69 9 -69 5 0 12 -13 16 -30 4
-16 11 -30 16 -30 5 0 9 -14 9 -31 0 -17 -4 -28 -10 -24 -6 4 -11 -6 -11 -22
-2 -40 2 -58 12 -61 5 -2 9 -21 9 -43 0 -24 5 -39 13 -39 8 0 7 -4 -3 -10 -10
-6 -11 -10 -2 -10 6 0 12 -11 12 -25 0 -14 7 -28 15 -31 11 -5 15 -24 15 -80
0 -53 4 -74 13 -74 8 0 12 -16 12 -47 0 -28 5 -48 13 -50 14 -5 17 -53 2 -53
-5 0 -10 -16 -10 -35 0 -19 5 -35 10 -35 6 0 10 -11 10 -25 0 -16 6 -25 15
-25 9 0 15 -9 15 -25 0 -14 4 -25 10 -25 5 0 9 -51 9 -122 0 -76 4 -124 11
-128 6 -4 14 -39 17 -78 3 -40 10 -72 14 -72 5 0 9 -18 9 -39 0 -22 4 -41 10
-43 5 -1 12 -40 16 -85 4 -46 11 -83 15 -83 5 0 9 -31 9 -69 0 -43 4 -71 11
-73 7 -2 14 -36 17 -81 2 -42 9 -77 13 -77 5 0 9 -27 9 -61 0 -40 5 -65 15
-75 11 -11 15 -37 15 -90 0 -43 4 -74 10 -74 6 0 10 -23 10 -51 0 -27 4 -48 9
-45 4 3 11 -22 14 -57 3 -34 10 -63 16 -65 6 -2 11 -30 11 -63 0 -33 4 -58 9
-55 5 3 12 -21 15 -54 4 -33 11 -60 16 -60 6 0 10 -11 10 -25 0 -14 -4 -25
-10 -25 -5 0 -10 -11 -10 -25 0 -14 5 -25 10 -25 6 0 10 -21 10 -46 0 -27 4
-43 10 -39 6 3 10 2 10 -4 0 -5 -6 -12 -12 -14 -10 -4 -10 -8 1 -15 7 -5 16
-30 18 -56 3 -26 10 -49 14 -52 5 -3 9 -27 9 -55 0 -27 5 -49 10 -49 6 0 10
-9 10 -20 0 -11 -4 -20 -10 -20 -5 0 -10 -7 -10 -15 0 -8 4 -15 9 -15 4 0 11
-28 15 -62 3 -35 11 -65 16 -66 6 -2 10 -19 10 -37 0 -18 4 -35 9 -37 5 -1 11
-45 13 -97 3 -61 9 -96 16 -99 8 -2 12 -29 12 -78 0 -41 4 -74 9 -74 4 0 11
-21 14 -47 3 -26 10 -49 16 -51 6 -2 11 -24 11 -49 0 -59 40 -103 94 -103 20
0 36 5 36 10 0 6 9 10 20 10 11 0 20 -4 20 -10 0 -5 11 -10 25 -10 14 0 25 4
25 10 0 5 18 13 40 16 22 4 40 10 40 15 0 5 32 9 70 9 48 0 72 4 75 13 4 8 27
12 67 13 37 1 63 5 66 12 2 8 31 12 78 12 41 0 74 4 74 9 0 4 21 11 47 14 26
3 49 10 51 16 2 6 22 11 43 11 29 0 38 -3 33 -12 -6 -10 -4 -10 7 0 7 6 35 12
61 12 26 0 48 4 48 10 0 5 18 13 40 16 22 4 40 10 40 15 0 5 9 9 20 9 12 0 31
11 44 25 26 28 44 31 60 11 6 -8 18 -16 26 -17 25 -3 100 13 100 22 0 5 29 9
65 9 36 0 65 4 65 9 0 6 9 9 20 8 11 -1 20 -5 20 -9 0 -12 28 -10 32 2 2 5 31
13 66 16 34 4 62 11 62 15 0 5 38 9 85 9 47 0 85 4 85 9 0 5 11 12 25 15 14 4
25 11 25 16 0 6 7 10 15 10 8 0 15 -4 15 -10 0 -5 9 -10 20 -10 11 0 20 5 20
10 0 6 18 10 39 10 22 0 42 6 45 13 5 10 7 10 12 0 7 -15 34 -18 34 -4 0 5 23
12 50 16 28 4 50 11 50 16 0 5 15 9 34 9 19 0 36 5 38 11 2 7 27 11 65 10 43
-1 66 3 77 14 8 8 19 15 25 15 7 0 11 33 11 90 0 50 -4 90 -9 90 -4 0 -11 27
-15 60 -4 33 -11 60 -16 60 -5 0 -11 35 -14 78 -8 127 -17 172 -32 172 -11 0
-14 17 -14 75 0 42 -4 75 -10 75 -5 0 -12 11 -16 25 -6 25 -8 25 -103 25 -66
0 -91 -3 -81 -10 15 -10 13 -10 -113 -14 -30 -1 -52 -7 -58 -16 -8 -11 -12
-12 -16 -2 -5 14 -73 17 -73 3 0 -5 -26 -12 -57 -15 -104 -9 -144 -18 -150
-32 -4 -10 -25 -14 -78 -14 -40 0 -75 -4 -77 -10 -1 -5 -40 -12 -85 -16 -46
-4 -83 -11 -83 -15 0 -5 -11 -9 -25 -9 -14 0 -25 -4 -25 -10 0 -15 -47 -12
-53 3 -4 9 -8 9 -14 0 -4 -6 -25 -14 -46 -18 -20 -4 -37 -11 -37 -16 0 -5 -7
-9 -15 -9 -8 0 -15 5 -15 10 0 6 -9 10 -20 10 -11 0 -20 -4 -20 -10 0 -5 -18
-10 -40 -10 -22 0 -40 -4 -40 -8 0 -5 -44 -12 -97 -15 -54 -4 -99 -11 -101
-17 -5 -13 -72 -13 -72 0 0 6 -6 10 -14 10 -9 0 -16 15 -20 43 -16 121 -31
197 -38 197 -4 0 -8 31 -8 69 0 46 -4 71 -12 73 -8 3 -14 33 -16 86 -2 45 -8
82 -13 82 -5 0 -9 6 -9 14 0 8 -4 16 -9 18 -6 2 -12 57 -14 123 -3 77 -8 120
-16 123 -6 2 -11 25 -11 53 0 27 -4 49 -8 49 -21 0 -42 80 -42 163 0 49 -4 87
-10 87 -5 0 -12 16 -16 35 -3 19 -10 35 -15 35 -5 0 -9 41 -9 90 0 53 -4 90
-10 90 -5 0 -10 18 -10 39 0 22 -7 46 -15 55 -16 16 -21 106 -6 106 5 0 12 11
15 25 6 22 12 25 51 25 25 0 45 4 45 9 0 4 32 11 72 13 40 3 74 11 76 17 2 6
27 11 58 11 30 0 54 5 54 10 0 6 16 10 36 10 21 0 33 -4 29 -10 -10 -16 25
-12 41 5 9 8 24 15 35 15 11 0 17 5 14 10 -4 6 8 10 29 10 19 0 38 5 41 10 3
6 44 10 90 10 61 0 88 4 99 15 10 11 37 15 96 15 52 0 79 4 75 10 -4 6 8 10
29 10 19 0 41 7 50 15 9 10 34 15 71 15 37 0 62 5 72 15 11 11 33 15 82 13 96
-4 106 8 106 125 0 63 -4 92 -13 95 -8 2 -12 33 -12 107 0 79 -3 105 -15 115
-10 8 -15 30 -15 61 0 27 -4 49 -10 49 -5 0 -10 20 -10 44 0 24 -4 46 -10 48
-5 2 -10 20 -12 41 -1 21 -7 37 -14 37 -7 0 -14 3 -16 8 -15 34 -148 58 -148
26 0 -8 -5 -12 -10 -9 -6 3 -13 0 -16 -8 -4 -11 -28 -15 -102 -16 -53 -1 -98
-6 -100 -11 -2 -6 -19 -10 -37 -10 -19 0 -40 -7 -49 -15 -10 -10 -35 -15 -75
-15 -33 0 -62 -4 -65 -9 -3 -5 -31 -11 -63 -13 -31 -3 -59 -10 -61 -16 -2 -7
-27 -12 -62 -12 -32 0 -60 -5 -62 -10 -2 -6 -47 -13 -101 -17 -53 -3 -97 -10
-97 -15 0 -4 -18 -8 -40 -8 -22 0 -40 -4 -40 -9 0 -4 -33 -11 -72 -14 -40 -4
-74 -11 -76 -17 -5 -15 -91 -12 -108 4 -8 9 -14 35 -14 66 0 32 -4 49 -10 45
-6 -4 -10 9 -10 32 0 57 -11 113 -21 107 -5 -3 -9 20 -9 50 0 31 -4 56 -10 56
-5 0 -10 11 -10 25 0 14 5 25 10 25 6 0 10 7 10 15 0 8 -4 15 -10 15 -5 0 -12
11 -16 25 -3 14 -10 25 -15 25 -5 0 -9 38 -9 85 0 50 -4 85 -10 85 -5 0 -10
18 -10 39 0 22 -7 46 -15 55 -8 8 -15 17 -15 21 0 4 -7 13 -15 21 -8 9 -15 22
-15 30 0 8 7 14 15 14 11 0 15 12 15 50 0 28 -4 50 -9 50 -4 0 -11 16 -14 35
-3 19 -15 45 -27 57 -11 13 -16 24 -10 26 17 6 13 82 -5 82 -9 0 -15 9 -15 25
0 22 -4 25 -35 25 -24 0 -35 5 -35 15 0 9 9 15 21 15 11 0 27 6 35 14 16 17
19 56 4 56 -5 0 -10 11 -10 24 0 13 -6 27 -12 30 -10 5 -10 7 0 12 15 7 16 61
0 66 -7 3 -12 36 -13 94 -2 99 6 116 60 122 17 2 32 8 33 13 2 5 16 9 32 9 16
0 35 6 42 13 7 7 33 14 58 16 25 2 49 8 53 14 6 9 10 9 14 0 8 -21 24 -15 59
22 38 41 44 42 64 15 15 -20 60 -28 60 -10 0 6 18 10 40 10 22 0 40 4 40 9 0
5 34 12 75 16 41 4 75 11 75 16 0 5 23 9 50 9 32 0 50 4 50 12 0 9 3 9 12 0
14 -14 88 -16 88 -2 0 6 22 10 49 10 31 0 55 6 65 15 11 11 37 15 99 15 54 0
87 4 89 11 2 6 36 14 76 17 40 2 72 9 72 13 0 5 25 9 55 9 30 0 63 4 73 9 9 5
25 12 35 15 10 3 15 11 12 16 -4 6 -1 9 7 8 10 -2 12 16 9 87 -2 50 -7 92 -12
93 -5 2 -9 42 -9 88 0 49 -4 84 -10 84 -5 0 -10 11 -10 25 0 16 -6 25 -15 25
-12 0 -15 19 -15 110 0 67 -4 110 -10 110 -5 0 -10 18 -10 39 0 41 -20 71 -46
71 -8 0 -12 5 -9 10 3 6 -1 10 -9 10 -9 0 -16 5 -16 10 0 6 -11 10 -25 10 -14
0 -25 -4 -25 -10z m-1230 -420 c0 -5 -4 -10 -10 -10 -5 0 -10 5 -10 10 0 6 5
10 10 10 6 0 10 -4 10 -10z m580 -140 c0 -11 -4 -20 -10 -20 -5 0 -10 9 -10
20 0 11 5 20 10 20 6 0 10 -9 10 -20z m-430 -95 c0 -14 -4 -25 -10 -25 -5 0
-10 11 -10 25 0 14 5 25 10 25 6 0 10 -11 10 -25z m330 -70 c0 -36 -13 -47
-24 -19 -3 8 -10 12 -16 9 -14 -9 -12 13 3 30 22 25 37 17 37 -20z m-500 -10
c0 -16 -6 -25 -15 -25 -8 0 -15 7 -15 15 0 8 -4 15 -10 15 -5 0 -10 5 -10 10
0 6 11 10 25 10 20 0 25 -5 25 -25z m350 -15 c0 -5 -7 -10 -16 -10 -8 0 -12 5
-9 10 3 6 10 10 16 10 5 0 9 -4 9 -10z m320 0 c0 -5 -4 -10 -10 -10 -5 0 -10
5 -10 10 0 6 5 10 10 10 6 0 10 -4 10 -10z m-549 -17 c0 -5 2 -16 4 -25 2 -13
-3 -18 -21 -18 -19 0 -24 5 -24 25 0 18 5 25 20 25 11 0 20 -3 21 -7z m175 -5
c4 -6 2 -14 -4 -16 -7 -2 -10 -8 -6 -13 3 -5 -4 -9 -15 -9 -16 0 -21 6 -21 25
0 18 5 25 19 25 11 0 23 -5 27 -12z m-420 -40 c-1 -16 -8 -24 -23 -26 -25 -4
-30 11 -10 33 18 21 34 18 33 -7z m524 -8 c0 -5 -4 -10 -10 -10 -5 0 -10 5
-10 10 0 6 5 10 10 10 6 0 10 -4 10 -10z m350 0 c0 -5 -12 -10 -26 -10 -14 0
-23 4 -19 10 3 6 15 10 26 10 10 0 19 -4 19 -10z m-420 -31 c0 -5 -11 -9 -25
-9 -26 0 -34 15 -12 23 16 5 37 -3 37 -14z m-130 -49 c0 -5 -2 -10 -4 -10 -3
0 -8 5 -11 10 -3 6 -1 10 4 10 6 0 11 -4 11 -10z m-230 -20 c0 -5 -4 -10 -10
-10 -5 0 -10 5 -10 10 0 6 5 10 10 10 6 0 10 -4 10 -10z m106 -21 c3 -6 -1
-18 -10 -27 -15 -15 -16 -14 -16 11 0 27 13 36 26 16z m-76 -54 c0 -8 -4 -15
-10 -15 -5 0 -10 7 -10 15 0 8 5 15 10 15 6 0 10 -7 10 -15z m-200 -25 c0 -5
-4 -10 -10 -10 -5 0 -10 5 -10 10 0 6 5 10 10 10 6 0 10 -4 10 -10z m-230 -44
c0 -3 -4 -8 -10 -11 -5 -3 -10 -1 -10 4 0 6 5 11 10 11 6 0 10 -2 10 -4z m300
-336 c0 -5 7 -10 15 -10 8 0 15 -7 15 -16 0 -8 -5 -12 -10 -9 -6 3 -13 -1 -16
-9 -3 -9 -17 -16 -30 -16 -13 0 -24 -4 -24 -10 0 -5 -4 -10 -10 -10 -16 0 -12
37 5 44 8 3 15 15 15 26 0 13 7 20 20 20 11 0 20 -4 20 -10z m-100 -170 c0 -5
-7 -10 -15 -10 -8 0 -15 5 -15 10 0 6 7 10 15 10 8 0 15 -4 15 -10z m-120
-200 c0 -5 -4 -10 -10 -10 -5 0 -10 5 -10 10 0 6 5 10 10 10 6 0 10 -4 10 -10z"/>
<path d="M2268 8591 c-1 -5 -75 -12 -163 -16 -88 -4 -161 -11 -163 -16 -2 -5
-12 -9 -23 -9 -10 0 -19 -4 -19 -10 0 -5 -18 -10 -39 -10 -22 0 -46 -7 -55
-15 -8 -8 -28 -15 -45 -15 -17 0 -31 -4 -31 -9 0 -5 -18 -11 -40 -15 -22 -3
-40 -11 -40 -16 0 -6 -16 -10 -35 -10 -19 0 -35 -4 -35 -9 0 -5 -13 -12 -30
-16 -16 -4 -30 -11 -30 -16 0 -5 -7 -9 -15 -9 -9 0 -26 -10 -38 -22 -25 -26
-54 -46 -79 -54 -10 -4 -18 -10 -18 -15 0 -5 -7 -9 -15 -9 -9 0 -26 -11 -39
-25 -13 -14 -33 -25 -45 -25 -16 0 -21 -6 -21 -25 0 -16 -6 -25 -15 -25 -8 0
-15 -6 -15 -12 0 -9 -4 -8 -10 2 -8 12 -10 12 -10 1 0 -7 -11 -24 -25 -37 -14
-13 -25 -28 -25 -34 0 -7 -18 -29 -40 -51 -22 -22 -40 -46 -40 -54 0 -8 -4
-15 -10 -15 -5 0 -10 -7 -10 -16 0 -8 -4 -12 -10 -9 -5 3 -10 0 -10 -8 0 -8
-7 -17 -15 -21 -8 -3 -15 -15 -15 -26 0 -11 -4 -20 -10 -20 -5 0 -12 -11 -16
-25 -3 -14 -10 -25 -15 -25 -5 0 -9 -10 -9 -21 0 -12 -11 -32 -25 -45 -15 -13
-25 -34 -25 -50 0 -16 -10 -36 -25 -50 -21 -19 -25 -32 -25 -78 0 -30 -4 -56
-9 -58 -5 -1 -11 -34 -14 -73 -3 -38 -11 -71 -16 -73 -17 -6 -15 -399 2 -404
8 -3 13 -35 15 -101 2 -53 8 -97 13 -97 5 0 9 -34 9 -75 0 -41 4 -75 9 -75 5
0 12 -11 15 -25 4 -14 11 -25 16 -25 6 0 10 -40 10 -96 0 -71 4 -99 15 -110 8
-9 15 -26 15 -40 0 -13 5 -24 10 -24 6 0 10 -13 10 -30 0 -16 -4 -30 -10 -30
-5 0 -10 -9 -10 -20 0 -11 5 -20 10 -20 6 0 10 -7 10 -15 0 -8 4 -15 9 -15 4
0 11 -44 13 -97 3 -59 10 -99 17 -101 6 -2 11 -21 11 -43 0 -21 5 -39 10 -39
6 0 10 -21 10 -48 0 -28 7 -57 17 -71 12 -18 13 -22 2 -16 -11 7 -11 5 1 -10
11 -14 12 -19 3 -22 -15 -5 -18 -73 -3 -73 6 0 10 -23 10 -51 0 -31 6 -56 15
-65 12 -13 21 -73 16 -106 0 -5 3 -8 9 -8 5 0 10 -22 10 -50 0 -27 5 -50 10
-50 14 0 12 -47 -2 -54 -10 -5 -10 -7 0 -12 6 -3 15 -23 18 -45 4 -21 10 -39
15 -39 5 0 9 -38 9 -84 0 -54 4 -86 11 -88 6 -2 14 -27 17 -56 2 -29 8 -52 13
-52 5 0 9 -30 9 -66 0 -58 3 -70 25 -90 21 -19 25 -32 25 -79 0 -30 -4 -55
-10 -55 -5 0 -10 -7 -10 -15 0 -8 5 -15 10 -15 6 0 10 -22 10 -50 0 -27 4 -50
10 -50 5 0 12 -11 16 -25 3 -14 10 -25 15 -25 14 0 11 -48 -3 -54 -10 -5 -10
-7 0 -12 8 -4 12 -30 12 -80 0 -43 4 -74 10 -74 6 0 10 -7 10 -15 0 -8 -4 -15
-10 -15 -5 0 -10 -7 -10 -15 0 -8 4 -15 10 -15 5 0 13 -12 16 -26 4 -15 10
-21 13 -15 4 6 8 -28 10 -76 1 -64 6 -91 16 -99 8 -6 15 -16 15 -23 0 -6 5
-11 10 -11 6 0 10 -43 10 -110 0 -91 3 -110 15 -110 11 0 15 -12 15 -45 0 -25
5 -45 10 -45 6 0 10 -13 10 -30 0 -16 4 -30 10 -30 5 0 12 -11 16 -25 3 -14
10 -25 15 -25 5 0 9 -5 9 -11 0 -6 7 -17 15 -25 8 -9 15 -26 15 -40 0 -13 5
-24 10 -24 6 0 10 -11 10 -25 0 -16 6 -25 15 -25 8 0 15 -7 15 -15 0 -8 5 -15
10 -15 6 0 10 -9 10 -20 0 -11 4 -20 9 -20 5 0 12 -12 15 -26 4 -14 29 -48 56
-75 28 -28 50 -56 50 -64 0 -8 5 -15 10 -15 6 0 10 -7 10 -15 0 -8 7 -15 15
-15 8 0 15 -4 15 -10 0 -5 7 -10 15 -10 9 0 26 -11 39 -25 13 -14 28 -25 35
-25 6 0 11 -3 11 -7 0 -15 51 -67 68 -69 9 -2 18 -8 20 -13 2 -6 10 -11 18
-11 8 0 14 -4 14 -9 0 -5 11 -12 25 -15 14 -4 25 -11 25 -16 0 -6 11 -10 25
-10 14 0 25 -6 25 -13 0 -7 10 -14 22 -14 13 -1 24 -7 26 -13 2 -5 17 -10 33
-10 19 0 38 -9 53 -25 16 -17 34 -25 55 -25 18 0 39 -7 47 -15 13 -12 114 -23
157 -16 4 0 7 -4 7 -9 0 -6 7 -10 15 -10 8 0 15 -4 15 -10 0 -6 32 -10 75 -10
43 0 75 4 75 10 0 14 68 12 72 -2 5 -15 91 -14 96 2 2 5 15 10 28 10 15 0 24
6 24 15 0 8 5 15 11 15 5 0 7 5 4 10 -4 6 8 10 30 10 20 0 34 -4 31 -8 -9 -14
33 -42 62 -42 33 1 62 21 62 44 0 10 -4 14 -10 11 -6 -3 -10 -1 -10 4 0 6 9
11 20 11 11 0 20 -4 20 -10 0 -6 37 -10 90 -10 50 0 90 4 90 9 0 5 11 12 25
15 14 4 25 11 25 16 0 6 11 10 25 10 14 0 25 4 25 9 0 5 11 12 25 15 14 4 25
11 25 16 0 6 9 10 21 10 11 0 27 7 35 15 9 8 33 15 55 15 21 0 39 5 39 10 0 6
7 10 15 10 8 0 15 5 15 11 0 11 25 39 35 39 4 0 13 7 21 15 9 8 26 15 40 15
17 0 24 6 24 19 0 12 9 21 25 25 14 4 25 11 25 16 0 6 5 10 10 10 10 0 90 76
90 86 0 10 28 34 39 34 6 0 11 5 11 11 0 7 11 22 25 35 16 15 25 34 25 54 0
20 5 30 15 30 8 0 15 4 15 9 0 5 9 13 20 16 11 4 20 15 20 26 0 11 7 22 15 25
8 4 15 15 15 25 0 10 5 19 10 19 6 0 10 6 10 14 0 7 7 19 15 26 8 7 15 27 15
45 0 20 6 35 15 39 8 3 15 12 15 21 0 8 5 15 10 15 6 0 10 20 10 45 0 25 4 45
9 45 5 0 11 35 13 77 2 48 8 78 16 81 7 2 12 22 12 49 0 24 6 50 13 57 15 16
13 289 -3 294 -5 2 -10 25 -10 52 0 29 -5 51 -12 54 -10 5 -10 7 0 12 14 7 16
51 2 56 -5 2 -13 31 -16 66 -4 34 -11 62 -15 62 -5 0 -9 27 -9 60 0 33 -4 60
-10 60 -15 0 -13 97 3 104 8 3 7 8 -6 16 -9 6 -15 15 -12 21 4 5 -1 9 -9 9
-13 0 -16 16 -16 96 0 53 -4 93 -9 90 -5 -3 -12 10 -15 28 -4 19 -11 36 -16
38 -5 2 -10 24 -11 51 -2 26 -6 47 -10 47 -3 0 -9 37 -11 82 -3 49 -10 84 -16
86 -7 2 -12 26 -12 57 0 29 -5 55 -10 57 -6 2 -13 36 -17 76 -3 39 -10 72 -14
72 -5 0 -9 11 -9 25 0 14 -6 25 -12 25 -10 0 -9 3 1 9 11 7 11 9 0 13 -9 3
-13 20 -12 49 1 24 -1 68 -3 97 -5 46 -8 52 -28 52 -17 0 -23 6 -23 23 1 68
-2 77 -28 77 -27 0 -34 -17 -10 -26 11 -5 15 -21 15 -59 0 -48 -12 -80 -22
-56 -1 4 -20 11 -40 15 -29 5 -38 4 -38 -7 0 -8 -9 -14 -22 -13 -19 1 -24 8
-26 39 -3 36 -2 38 20 32 13 -4 25 -12 26 -16 2 -5 15 -9 28 -9 21 0 24 5 24
34 0 21 -6 36 -15 40 -17 6 -21 56 -4 56 16 0 39 26 39 45 0 22 -32 54 -38 37
-6 -19 -32 -14 -32 7 0 10 -11 27 -25 37 -14 10 -25 26 -25 35 0 12 7 15 25
11 14 -2 25 -11 25 -18 0 -8 5 -14 10 -14 6 0 10 11 10 25 0 14 -4 25 -10 25
-5 0 -10 7 -10 15 0 8 7 15 15 15 8 0 15 -4 15 -10 0 -5 9 -10 19 -10 15 0 20
9 23 40 5 56 -2 121 -13 114 -5 -3 -9 0 -9 5 0 6 -11 11 -25 11 -31 0 -31 5 0
34 14 13 25 33 25 45 0 16 -6 21 -25 21 -14 0 -25 5 -25 10 0 6 11 10 25 10
20 0 25 5 25 26 0 26 -20 54 -39 54 -6 0 -11 11 -11 25 0 16 6 25 16 25 11 0
14 6 8 23 -3 12 -11 24 -15 25 -5 2 -9 17 -9 32 0 16 -4 32 -10 35 -5 3 -10
24 -10 46 0 21 5 39 10 39 15 0 12 40 -5 56 -9 10 -15 34 -15 65 0 27 -4 49
-10 49 -6 0 -10 28 -10 64 0 42 -4 66 -12 70 -10 5 -10 7 0 12 17 8 15 51 -3
58 -11 4 -15 20 -15 55 0 27 -4 53 -10 56 -5 3 -10 24 -10 46 0 21 -4 39 -10
39 -5 0 -10 22 -10 49 0 31 -5 53 -15 61 -9 7 -15 29 -15 52 0 22 -7 46 -15
54 -8 9 -15 33 -15 55 0 24 -4 38 -10 34 -6 -4 -10 6 -10 24 0 16 -4 31 -10
33 -5 2 -10 18 -12 36 -1 18 -8 32 -15 32 -8 0 -13 13 -13 36 0 19 -6 42 -12
49 -30 33 -38 45 -38 55 0 5 -4 10 -10 10 -5 0 -10 11 -10 25 0 16 -6 25 -15
25 -8 0 -15 7 -15 16 0 8 -4 13 -8 10 -12 -7 -42 31 -42 54 0 11 -5 20 -11 20
-14 0 -39 25 -39 39 0 6 -5 11 -11 11 -17 0 -39 27 -39 49 0 13 -8 23 -23 26
-13 4 -31 17 -41 31 -11 13 -27 24 -37 24 -11 0 -19 5 -19 10 0 6 -7 10 -15
10 -8 0 -15 5 -15 11 0 14 -25 39 -39 39 -6 0 -11 4 -11 10 0 5 -11 12 -25 16
-14 3 -25 10 -25 15 0 5 -11 9 -25 9 -14 0 -25 4 -25 10 0 5 -11 12 -25 16
-14 3 -25 10 -25 15 0 5 -7 9 -15 9 -8 0 -15 4 -15 10 0 5 -16 12 -35 16 -19
3 -35 10 -35 15 0 5 -5 9 -11 9 -6 0 -17 7 -25 15 -10 9 -34 15 -64 15 -27 0
-50 5 -52 10 -2 6 -24 11 -50 13 -25 1 -44 5 -42 9 5 8 -16 10 -126 14 -24 1
-46 6 -48 13 -4 13 -159 16 -164 2z m154 -851 c2 -5 14 -11 27 -13 14 -2 27
-9 29 -15 2 -7 22 -12 43 -12 30 0 46 -6 63 -25 13 -14 26 -25 30 -25 11 0 36
-27 36 -39 0 -6 11 -11 25 -11 19 0 25 -5 25 -20 0 -12 11 -31 25 -44 14 -13
25 -31 25 -40 0 -9 5 -16 10 -16 6 0 10 -7 10 -15 0 -8 7 -15 15 -15 9 0 15
-9 15 -21 0 -11 7 -27 15 -35 8 -9 15 -33 15 -55 0 -21 5 -39 10 -39 6 0 10
-25 10 -56 0 -30 4 -53 9 -50 10 7 21 -51 21 -116 0 -27 5 -48 10 -48 6 0 10
-23 10 -51 0 -31 6 -56 15 -65 9 -10 15 -35 15 -67 0 -37 3 -48 10 -37 7 10
10 -19 10 -91 0 -87 3 -108 15 -113 12 -4 15 -20 13 -68 -2 -41 2 -63 10 -66
7 -2 12 -15 12 -28 0 -13 5 -24 10 -24 6 0 10 -20 10 -44 0 -26 6 -51 15 -60
17 -17 20 -46 5 -46 -5 0 -10 -11 -10 -25 0 -14 5 -25 10 -25 6 0 10 -20 10
-44 0 -25 5 -46 11 -48 7 -2 14 -36 17 -83 2 -44 8 -81 13 -83 5 -2 9 -37 9
-77 0 -41 5 -77 10 -80 6 -3 10 -21 10 -38 0 -18 7 -45 16 -62 10 -19 16 -56
16 -99 0 -60 3 -71 25 -92 23 -21 23 -24 9 -46 -15 -23 -12 -68 5 -68 5 0 9
-16 9 -36 0 -19 7 -42 15 -50 10 -11 15 -36 15 -80 0 -36 4 -64 10 -64 6 0 10
-38 10 -95 0 -57 4 -95 10 -95 6 0 10 -27 10 -60 0 -45 4 -62 15 -66 8 -4 15
-17 15 -29 0 -13 4 -25 10 -27 5 -1 12 -58 16 -125 4 -68 11 -123 16 -123 4 0
8 -22 8 -50 0 -27 4 -50 9 -50 11 0 20 -38 23 -97 1 -24 7 -43 12 -43 6 0 4
-5 -4 -11 -11 -8 -12 -12 -2 -16 8 -3 12 -31 12 -89 0 -59 3 -83 11 -78 8 4 9
-10 5 -50 -3 -31 -9 -81 -12 -111 -3 -30 -10 -55 -15 -55 -5 0 -9 -9 -9 -20 0
-10 -12 -33 -27 -49 -46 -49 -53 -59 -53 -76 0 -18 -35 -55 -53 -55 -7 0 -17
-10 -22 -22 -6 -13 -19 -24 -29 -26 -18 -4 -28 -10 -61 -39 -7 -7 -18 -13 -24
-13 -6 0 -11 -7 -11 -15 0 -8 -7 -15 -15 -15 -8 0 -15 -4 -15 -10 0 -5 -20
-10 -45 -10 -25 0 -45 -4 -45 -9 0 -5 -40 -13 -90 -17 -49 -3 -90 -10 -90 -15
0 -5 -18 -9 -40 -9 -22 0 -40 5 -40 10 0 6 -15 10 -34 10 -19 0 -41 7 -50 15
-8 8 -24 15 -36 15 -12 0 -28 6 -35 13 -36 32 -46 37 -65 37 -23 0 -50 22 -50
39 0 6 -9 11 -21 11 -19 0 -79 49 -79 65 0 10 -28 35 -39 35 -6 0 -11 9 -11
21 0 11 -7 27 -15 35 -8 9 -15 29 -15 45 0 16 -4 29 -10 29 -5 0 -10 18 -10
39 0 22 -4 41 -9 43 -5 1 -12 21 -15 43 -4 22 -11 42 -16 43 -6 2 -10 26 -10
53 0 27 -4 49 -9 49 -4 0 -11 39 -14 87 -4 48 -11 89 -17 91 -5 2 -10 30 -10
62 0 37 -4 60 -12 62 -7 3 -14 32 -16 76 -2 40 -8 72 -13 72 -5 0 -9 36 -9 80
0 73 -2 83 -25 104 -22 21 -25 31 -25 100 0 43 -4 75 -9 72 -12 -8 -21 29 -21
92 0 28 -4 52 -10 52 -6 0 -10 32 -10 75 0 43 -4 75 -10 75 -5 0 -10 18 -10
39 0 22 -7 46 -15 55 -11 11 -15 39 -15 110 0 53 -4 96 -9 96 -4 0 -11 37 -15
83 -4 45 -11 84 -16 85 -6 2 -10 33 -10 68 0 35 -4 64 -9 64 -5 0 -12 11 -15
25 -4 14 -11 25 -16 25 -6 0 -10 45 -10 110 0 61 -4 110 -9 110 -5 0 -12 14
-16 30 -4 17 -11 30 -16 30 -5 0 -9 23 -9 50 0 28 -4 50 -10 50 -5 0 -10 11
-10 25 0 14 5 25 10 25 6 0 10 11 10 25 0 14 -4 25 -9 25 -4 0 -11 27 -15 60
-4 33 -11 60 -16 60 -6 0 -10 33 -10 74 0 50 -4 76 -12 80 -10 5 -10 7 0 12
20 9 14 43 -13 68 -20 18 -25 33 -25 70 0 34 -4 46 -15 46 -8 0 -15 5 -15 10
0 6 7 13 15 16 18 7 21 70 3 76 -7 3 -14 32 -16 76 -2 40 -8 72 -13 72 -5 0
-9 23 -9 50 0 28 4 50 9 50 4 0 11 33 14 72 4 40 11 74 17 76 5 2 10 19 10 38
0 19 4 34 9 34 4 0 11 16 14 35 4 23 19 47 41 69 20 18 36 38 36 45 0 6 5 11
11 11 7 0 19 8 28 19 9 10 26 21 39 25 12 4 22 12 22 17 0 5 11 9 25 9 14 0
25 4 25 10 0 5 11 12 25 16 14 3 25 10 25 15 0 5 11 9 25 9 14 0 25 4 25 10 0
5 27 12 60 16 33 4 60 11 60 15 0 12 248 11 252 -1z m1048 -1130 c0 -5 -4 -10
-10 -10 -5 0 -10 5 -10 10 0 6 5 10 10 10 6 0 10 -4 10 -10z m200 -95 c0 -8
-9 -15 -20 -15 -13 0 -22 -9 -26 -25 -7 -29 -10 -30 -30 -11 -17 18 -18 24 -1
41 12 11 23 15 70 24 4 0 7 -6 7 -14z m54 -87 c-9 -32 -9 -32 -33 -11 -29 24
-26 33 10 33 27 0 30 -3 23 -22z m36 -45 c28 -24 25 -33 -10 -33 -22 0 -30 5
-30 18 0 17 8 32 17 32 1 0 12 -8 23 -17z m46 -89 c-6 -12 -14 -20 -18 -18 -5
3 -8 -4 -8 -16 0 -13 4 -18 11 -15 6 4 5 -2 -3 -14 -7 -12 -19 -19 -26 -16 -7
3 -10 0 -7 -5 3 -6 -3 -10 -14 -10 -12 0 -21 -4 -21 -10 0 -5 -9 -10 -20 -10
-11 0 -20 5 -20 10 0 6 -7 10 -15 10 -9 0 -15 9 -15 25 0 22 4 25 36 25 41 0
37 15 -6 25 -22 5 -30 12 -30 29 0 19 4 21 36 18 19 -2 33 -7 30 -9 -3 -3 2
-12 10 -20 13 -14 18 -12 41 15 19 24 28 28 37 20 9 -9 9 -18 2 -34z m-200
-108 c22 -22 18 -56 -7 -56 -26 0 -49 23 -49 49 0 25 34 29 56 7z m87 -122 c7
-8 -17 -34 -32 -34 -6 0 -11 9 -11 20 0 19 28 28 43 14z m35 -114 c11 -18 10
-20 -8 -20 -13 0 -20 7 -20 20 0 11 3 20 8 20 4 0 13 -9 20 -20z m122 -190 c0
-5 -4 -10 -10 -10 -5 0 -10 5 -10 10 0 6 5 10 10 10 6 0 10 -4 10 -10z m-50
-76 c0 -11 -5 -14 -16 -10 -9 3 -20 6 -25 6 -5 0 -9 5 -9 10 0 6 11 10 25 10
16 0 25 -6 25 -16z m126 0 c-3 -9 -6 -20 -6 -25 0 -5 -4 -9 -10 -9 -5 0 -10
11 -10 25 0 16 6 25 16 25 11 0 14 -5 10 -16z m-76 -19 c0 -8 -7 -15 -15 -15
-8 0 -15 -4 -15 -10 0 -5 -4 -10 -10 -10 -16 0 -12 22 8 36 23 18 32 17 32 -1z
m50 -81 c0 -17 -22 -14 -28 4 -2 7 3 12 12 12 9 0 16 -7 16 -16z m-250 -34 c0
-11 -4 -20 -10 -20 -5 0 -10 9 -10 20 0 11 5 20 10 20 6 0 10 -9 10 -20z m-80
-80 c0 -11 -4 -20 -9 -20 -6 0 -9 9 -8 20 1 11 5 20 9 20 4 0 8 -9 8 -20z
m-570 -2510 c0 -5 -4 -10 -10 -10 -5 0 -10 5 -10 10 0 6 5 10 10 10 6 0 10 -4
10 -10z m109 -39 c11 -7 7 -15 -18 -40 -17 -17 -38 -31 -46 -31 -8 0 -17 -11
-21 -25 -8 -31 -39 -34 -41 -3 -2 23 31 58 54 58 7 0 13 9 13 19 0 27 32 39
59 22z"/>
<path d="M3878 6158 c0 -7 -2 -17 -2 -23 -1 -5 -5 -15 -9 -22 -5 -8 2 -11 23
-11 23 1 30 6 30 20 0 18 -21 48 -34 48 -3 0 -7 -6 -8 -12z"/>
<path d="M9040 4840 c11 -7 4 -11 -28 -16 -23 -3 -39 -10 -36 -15 3 -5 -35 -9
-85 -9 -50 0 -91 -4 -93 -10 -1 -5 -31 -13 -65 -16 -35 -4 -63 -11 -63 -15 0
-5 -43 -9 -95 -9 -56 0 -95 -4 -95 -10 0 -5 -18 -13 -40 -16 -22 -4 -40 -10
-40 -15 0 -5 -11 -9 -25 -9 -15 0 -25 -6 -25 -14 0 -8 -6 -16 -12 -18 -15 -5
-12 -131 3 -136 5 -2 9 -39 9 -83 0 -43 4 -79 9 -79 8 0 26 -66 23 -82 -1 -5
3 -8 8 -8 6 0 10 -33 10 -80 0 -44 4 -80 9 -80 4 0 11 -27 15 -60 4 -33 11
-60 16 -60 6 0 10 -27 10 -60 0 -33 4 -60 9 -60 5 0 12 -11 15 -25 4 -14 11
-25 16 -25 6 0 10 -7 10 -15 0 -12 15 -15 71 -15 49 0 75 4 85 15 9 8 33 15
55 15 21 0 39 5 39 10 0 6 32 10 75 10 41 0 75 4 75 9 0 5 23 12 50 16 28 4
50 11 50 16 0 5 42 9 94 9 78 0 95 3 100 16 5 14 16 16 62 10 54 -6 58 -5 88
26 29 30 31 38 31 102 0 47 -4 71 -12 74 -9 2 -13 26 -13 72 0 39 -5 70 -10
72 -6 2 -13 30 -16 63 -2 33 -9 62 -14 63 -6 2 -10 44 -10 98 0 59 -4 93 -10
89 -5 -3 -12 4 -14 17 -10 49 -18 95 -23 142 -4 37 -13 57 -33 78 -27 26 -34
28 -112 28 -55 0 -78 -3 -68 -10z"/>
<path d="M5153 4123 c-29 -2 -53 -8 -53 -14 0 -5 -12 -9 -26 -9 -14 0 -23 -4
-19 -10 6 -10 -17 -12 -144 -15 -32 -1 -57 -7 -59 -13 -2 -8 -28 -12 -68 -12
-35 0 -64 -4 -64 -9 0 -4 -27 -11 -60 -15 -33 -4 -60 -11 -60 -16 0 -6 -25
-10 -55 -10 -85 0 -95 -15 -95 -145 0 -58 4 -105 9 -105 5 0 12 -29 16 -65 3
-36 11 -65 16 -65 5 0 9 -38 9 -84 0 -46 3 -86 8 -88 13 -6 42 -69 42 -94 0
-13 5 -24 10 -24 6 0 10 -37 10 -90 0 -73 3 -90 15 -90 8 0 15 -9 15 -20 0
-31 28 -58 56 -52 13 2 24 8 24 13 0 5 32 9 70 9 39 0 70 4 70 9 0 5 41 13 90
17 50 3 90 10 90 15 0 5 15 9 34 9 19 0 36 5 38 10 2 6 34 12 72 13 43 2 71 8
74 15 2 8 33 12 93 12 53 0 89 4 89 10 0 6 11 10 24 10 14 0 31 7 40 15 8 8
19 15 25 15 7 0 11 24 11 60 0 33 -4 60 -9 60 -4 0 -11 39 -15 87 -3 48 -11
92 -16 97 -6 6 -10 32 -10 59 0 26 -4 46 -9 43 -5 -3 -12 16 -16 44 -4 27 -11
50 -16 50 -5 0 -9 16 -9 36 0 21 -4 33 -10 29 -6 -4 -10 20 -10 64 0 56 -3 71
-15 71 -8 0 -15 5 -15 10 0 6 5 10 10 10 6 0 10 14 10 30 0 17 -4 30 -10 30
-5 0 -10 9 -10 21 0 22 -22 49 -39 49 -6 0 -11 7 -11 15 0 15 -20 17 -147 8z"/>
<path d="M660 1910 c0 -6 -27 -10 -65 -10 -38 0 -72 -5 -81 -12 -8 -7 -21 -19
-29 -25 -7 -7 -21 -13 -30 -13 -9 0 -13 -4 -10 -10 3 -5 0 -10 -8 -10 -20 0
-53 -31 -61 -57 -4 -13 -12 -23 -17 -23 -5 0 -9 -11 -9 -24 0 -13 -6 -26 -12
-29 -10 -3 -13 -106 -13 -472 0 -366 3 -469 13 -473 6 -2 12 -8 12 -14 0 -5 6
-16 13 -23 29 -33 37 -45 37 -55 0 -5 5 -10 11 -10 6 0 17 -6 24 -13 33 -28
43 -35 88 -52 26 -10 47 -22 47 -26 0 -12 227 -11 232 0 2 6 16 12 33 15 16 3
31 10 33 16 2 5 12 10 23 10 11 0 36 17 56 38 20 20 40 36 45 35 4 -2 8 8 8
22 0 14 4 25 10 25 5 0 16 14 25 30 14 26 16 92 15 487 0 251 -4 459 -9 462
-4 4 -11 16 -15 29 -4 12 -12 22 -17 22 -5 0 -9 11 -9 25 0 14 -5 25 -11 25
-14 0 -39 25 -39 39 0 6 -11 11 -25 11 -14 0 -25 4 -25 10 0 5 -11 12 -25 16
-14 3 -25 10 -25 15 0 5 -25 9 -55 9 -30 0 -55 4 -55 8 0 4 -18 9 -40 10 -23
2 -40 -2 -40 -8z m37 -6 c-3 -3 -12 -4 -19 -1 -8 3 -5 6 6 6 11 1 17 -2 13 -5z
m33 -194 c0 -5 9 -10 20 -10 12 0 28 -6 36 -12 46 -39 44 -19 44 -404 0 -236
4 -364 10 -364 6 0 10 -16 10 -35 0 -19 -4 -35 -10 -35 -5 0 -10 -7 -10 -15 0
-18 -47 -65 -65 -65 -8 0 -15 -4 -15 -10 0 -5 -18 -10 -40 -10 -22 0 -40 -4
-40 -10 0 -5 -9 -10 -20 -10 -11 0 -20 5 -20 10 0 6 -7 10 -15 10 -8 0 -15 5
-15 10 0 10 -8 22 -37 55 -10 10 -13 109 -13 420 l0 407 28 26 c15 15 37 32
47 39 24 14 105 17 105 3z"/>
<path d="M8400 1910 c0 -6 -27 -10 -60 -10 -33 0 -60 -4 -60 -9 0 -5 -11 -12
-25 -15 -14 -4 -25 -11 -25 -16 0 -6 -5 -10 -11 -10 -16 0 -69 -57 -69 -75 0
-8 -7 -18 -15 -21 -8 -4 -12 -10 -9 -15 3 -5 -2 -12 -10 -15 -13 -5 -16 -24
-16 -95 0 -95 8 -109 60 -109 12 0 18 -4 15 -10 -4 -6 14 -10 47 -10 38 0 49
3 38 10 -12 8 -9 10 12 10 32 0 43 18 51 80 3 24 11 46 16 48 6 2 11 8 11 14
0 13 26 38 39 38 6 0 11 5 11 10 0 6 23 10 50 10 28 0 50 -4 50 -10 0 -5 11
-10 25 -10 14 0 25 -5 25 -11 0 -6 7 -17 15 -25 9 -9 15 -34 15 -60 0 -24 5
-44 10 -44 6 0 10 -25 10 -55 0 -30 -4 -55 -10 -55 -5 0 -12 -11 -16 -25 -4
-15 -13 -25 -24 -25 -10 0 -20 -7 -24 -15 -3 -9 -18 -15 -35 -15 -16 0 -33 -4
-36 -10 -3 -5 -19 -10 -36 -10 -47 0 -69 -31 -69 -95 0 -48 3 -55 19 -55 11 0
21 -5 23 -11 2 -5 22 -13 46 -16 23 -3 42 -10 42 -14 0 -5 9 -9 21 -9 19 0 49
-21 49 -35 0 -4 7 -14 16 -22 13 -13 15 -38 12 -151 -2 -97 -7 -137 -15 -140
-7 -2 -13 -10 -13 -18 0 -8 -9 -14 -20 -14 -11 0 -20 -4 -20 -10 0 -5 -25 -10
-55 -10 -30 0 -55 4 -55 9 0 5 -11 12 -25 15 -16 4 -25 13 -25 25 0 11 -5 21
-11 23 -6 2 -13 25 -16 51 -3 26 -10 47 -14 47 -5 0 -9 7 -9 15 0 12 -16 15
-80 15 -109 0 -120 -11 -120 -120 0 -50 4 -80 11 -80 5 0 8 -4 5 -8 -3 -5 4
-18 14 -30 11 -12 20 -30 20 -42 0 -11 5 -20 11 -20 14 0 39 -25 39 -39 0 -6
11 -11 24 -11 13 0 26 -4 28 -9 2 -6 16 -12 33 -15 16 -3 31 -10 33 -16 2 -6
52 -10 129 -10 97 0 128 3 139 15 9 8 26 15 40 15 13 0 24 5 24 10 0 6 7 10
15 10 9 0 26 11 39 25 13 14 28 25 35 25 6 0 11 7 11 15 0 8 4 15 10 15 5 0
12 11 16 25 3 14 10 25 15 25 5 0 9 90 9 200 0 110 -4 200 -9 200 -5 0 -11 14
-15 31 -3 16 -22 45 -41 63 -39 37 -40 41 -22 61 29 33 37 45 37 55 0 5 7 10
15 10 9 0 15 9 15 25 0 14 5 25 10 25 6 0 10 23 10 50 0 28 -4 50 -10 50 -5 0
-10 11 -10 25 0 14 5 25 10 25 6 0 10 23 10 50 0 28 -4 50 -10 50 -5 0 -10 25
-10 56 0 65 -23 112 -58 121 -18 4 -21 8 -10 14 9 6 7 9 -9 9 -13 0 -23 4 -23
9 0 5 -11 12 -25 15 -14 4 -25 11 -25 16 0 6 -29 10 -65 10 -37 0 -65 4 -65
10 0 6 -22 10 -50 10 -27 0 -50 -4 -50 -10z"/>
<path d="M1313 1885 c-10 -11 -13 -155 -13 -645 0 -534 2 -634 14 -646 10 -10
39 -14 100 -14 l86 0 0 50 c0 28 5 50 10 50 6 0 10 5 10 11 0 5 -4 7 -10 4 -6
-4 -10 35 -10 109 0 64 4 116 9 116 5 0 11 18 15 40 3 22 11 40 16 40 6 0 10
9 10 20 0 11 7 23 15 26 8 4 15 10 15 16 0 15 27 38 45 38 23 0 44 -24 51 -59
4 -17 10 -28 15 -25 5 3 9 -11 9 -30 0 -20 4 -36 10 -36 5 0 12 -11 16 -25 3
-14 10 -25 15 -25 5 0 9 -11 9 -25 0 -14 4 -25 9 -25 5 0 11 -18 15 -40 3 -22
11 -40 16 -40 6 0 10 -11 10 -25 0 -14 3 -25 8 -25 4 0 16 -16 26 -35 11 -19
23 -35 28 -35 4 0 8 -9 8 -19 0 -48 7 -51 107 -51 68 0 98 4 109 14 19 19 18
56 -1 56 -8 0 -15 7 -15 15 0 8 -4 15 -10 15 -5 0 -10 9 -10 21 0 22 -22 49
-39 49 -7 0 -11 24 -11 60 0 33 -4 60 -10 60 -5 0 -10 7 -10 15 0 8 -7 15 -15
15 -9 0 -15 9 -15 25 0 14 -4 25 -10 25 -5 0 -13 18 -16 40 -4 22 -10 40 -15
40 -5 0 -9 9 -9 21 0 11 -7 27 -15 35 -8 9 -15 24 -15 35 0 11 -4 17 -10 14
-6 -4 -10 8 -10 29 0 25 -4 36 -15 36 -9 0 -15 9 -15 25 0 14 -4 25 -10 25 -5
0 -10 11 -10 24 0 13 -6 26 -12 28 -7 3 -13 23 -13 48 0 25 6 45 13 48 6 2 12
17 12 33 0 19 9 38 25 53 14 13 25 28 25 35 0 6 4 11 10 11 5 0 12 11 16 25 3
14 10 25 15 25 5 0 9 9 9 20 0 11 4 20 9 20 5 0 12 11 15 25 4 14 11 25 16 25
6 0 10 9 10 20 0 12 11 31 25 44 14 13 25 33 25 45 0 11 4 21 9 21 13 0 24 55
16 80 -6 18 -15 20 -86 20 -76 0 -82 -2 -110 -29 -16 -16 -29 -34 -29 -40 0
-6 -4 -11 -10 -11 -5 0 -12 -11 -16 -25 -3 -14 -10 -25 -15 -25 -5 0 -9 -13
-9 -29 0 -16 -6 -31 -15 -35 -8 -3 -15 -13 -15 -21 0 -9 -4 -13 -10 -10 -6 4
-10 -5 -10 -19 0 -14 -4 -26 -9 -26 -5 0 -12 -13 -16 -30 -4 -16 -11 -30 -16
-30 -5 0 -9 -9 -9 -21 0 -11 -6 -27 -12 -34 -32 -36 -38 -46 -38 -65 0 -11 -4
-20 -10 -20 -5 0 -13 -18 -16 -40 -4 -22 -10 -40 -15 -40 -5 0 -9 -7 -9 -15 0
-16 -9 -19 -34 -9 -17 7 -22 54 -6 54 6 0 10 38 10 95 0 55 -4 95 -10 95 -6 0
-11 65 -12 163 l-3 162 -85 2 c-64 2 -88 -1 -97 -12z"/>
<path d="M2400 1891 c0 -5 -9 -13 -20 -16 -11 -4 -18 -12 -14 -18 3 -7 -2 -3
-10 7 -19 24 -30 15 -32 -27 -1 -17 -7 -33 -13 -35 -15 -5 -16 -752 -1 -752 6
0 10 -11 10 -25 0 -14 -4 -25 -10 -25 -6 0 -10 -72 -10 -196 0 -156 3 -198 14
-210 12 -11 64 -14 286 -14 l271 0 26 26 c41 41 41 144 1 144 -10 0 -16 5 -13
10 4 7 -53 10 -169 10 -97 -1 -180 1 -186 5 -11 7 -14 332 -4 359 5 14 29 16
161 16 122 0 157 3 169 15 20 20 23 143 3 156 -8 6 -67 8 -134 6 -120 -4 -176
6 -197 37 -9 13 -11 298 -2 320 4 10 18 16 35 16 16 0 29 5 29 10 0 6 56 10
149 10 82 0 156 3 165 6 12 5 16 21 16 65 0 33 -4 59 -10 59 -5 0 -10 11 -10
25 l0 25 -250 0 c-148 0 -250 -4 -250 -9z"/>
<path d="M3363 1885 c-7 -8 -13 -19 -13 -25 0 -6 -4 -9 -9 -6 -5 3 -11 -13
-14 -36 -3 -24 -11 -44 -16 -46 -6 -2 -11 -30 -11 -62 0 -33 -5 -60 -11 -62
-6 -2 -13 -25 -16 -51 -3 -26 -10 -47 -14 -47 -5 0 -9 -23 -9 -51 0 -27 -4
-48 -9 -45 -5 3 -12 -19 -16 -49 -3 -30 -11 -55 -16 -55 -5 0 -9 -27 -9 -60 0
-33 -4 -60 -10 -60 -5 0 -12 -16 -16 -35 -3 -19 -10 -38 -15 -41 -5 -3 -9 -27
-9 -55 0 -27 -4 -49 -10 -49 -5 0 -12 -27 -16 -60 -4 -33 -11 -60 -15 -60 -5
0 -9 -17 -9 -38 0 -21 -5 -43 -11 -49 -5 -5 -10 -40 -10 -77 0 -44 -5 -71 -15
-80 -8 -8 -14 -34 -14 -60 l0 -45 55 -6 c89 -12 145 8 145 50 0 9 4 14 9 11 5
-3 12 21 15 54 4 33 11 60 16 60 6 0 10 14 10 30 0 57 27 70 145 70 68 0 105
-4 105 -11 0 -6 7 -17 15 -25 8 -9 15 -26 15 -40 0 -13 5 -24 10 -24 6 0 10
-20 10 -44 0 -25 5 -48 10 -51 6 -3 10 -17 10 -31 0 -14 6 -24 14 -24 8 0 16
-5 18 -11 2 -6 35 -14 74 -16 56 -4 73 -2 86 11 9 9 21 16 27 16 6 0 11 7 11
15 0 8 -4 15 -9 15 -4 0 -11 27 -15 60 -4 33 -11 60 -16 60 -6 0 -10 27 -10
60 0 33 -4 60 -9 60 -5 0 -11 18 -15 40 -3 22 -11 40 -16 40 -6 0 -10 23 -10
50 0 28 -4 50 -9 50 -5 0 -13 29 -16 65 -4 36 -11 65 -16 65 -5 0 -9 20 -9 45
0 25 -4 45 -10 45 -5 0 -10 10 -10 23 0 35 -11 67 -21 61 -5 -3 -9 24 -9 60 0
36 -4 66 -10 66 -5 0 -12 27 -16 60 -4 33 -11 60 -15 60 -5 0 -9 16 -9 35 0
19 -4 35 -9 35 -4 0 -11 28 -15 63 -3 34 -11 64 -16 65 -6 2 -10 17 -10 33 0
50 -30 69 -107 69 -46 -1 -72 -5 -80 -15z m92 -498 c7 -7 16 -41 20 -75 4 -34
11 -62 16 -62 5 0 9 -22 9 -50 0 -27 5 -50 10 -50 6 0 10 -22 10 -50 l0 -50
-85 0 -85 0 0 40 c0 22 4 40 9 40 4 0 11 27 15 60 4 33 11 62 16 65 6 4 10 37
10 76 0 63 2 69 21 69 11 0 26 -6 34 -13z"/>
<path d="M4013 1885 c-10 -11 -13 -155 -13 -650 0 -558 2 -635 15 -635 8 0 15
-4 15 -10 0 -16 159 -13 175 4 11 11 15 68 17 268 3 222 5 257 20 271 13 14
36 17 116 17 95 0 99 -1 112 -25 7 -14 17 -25 22 -25 4 0 8 -16 8 -35 0 -19
-4 -35 -10 -35 -6 0 -10 -45 -10 -115 0 -70 4 -115 10 -115 6 0 10 -9 10 -21
0 -11 -4 -17 -10 -14 -6 4 -10 -12 -10 -39 0 -25 5 -46 10 -46 6 0 10 -22 10
-49 l0 -50 55 -6 c31 -4 69 -5 86 -1 63 12 59 -27 57 678 l-3 643 -83 3 c-104
4 -112 -3 -112 -92 0 -37 -4 -66 -10 -66 -5 0 -10 -9 -10 -21 0 -11 5 -17 10
-14 6 4 10 -38 10 -119 0 -77 -4 -126 -10 -126 -5 0 -10 -15 -9 -32 0 -28 2
-30 9 -13 l9 20 0 -20 c0 -11 -12 -35 -28 -52 -28 -32 -31 -33 -110 -33 -47 0
-81 4 -81 10 0 6 -7 10 -16 10 -39 0 -43 25 -44 278 0 154 -4 242 -10 242 -5
0 -10 7 -10 15 0 21 -169 21 -187 0z"/>
<path d="M5490 1882 c-13 -14 -15 -92 -18 -546 -2 -400 -6 -532 -15 -538 -9
-6 -9 -12 1 -28 7 -11 12 -52 12 -95 0 -58 3 -75 14 -75 8 0 16 -6 19 -12 3
-10 69 -13 284 -13 324 0 313 -3 313 90 0 54 -14 85 -38 85 -6 0 -12 4 -14 10
-2 5 -75 10 -175 10 l-173 2 -2 41 c0 23 0 52 1 65 1 12 -3 22 -9 22 -5 0 -10
11 -10 25 0 14 5 25 10 25 14 0 12 27 -2 33 -10 4 -10 6 0 6 14 1 16 47 2 56
-5 3 -10 17 -10 31 0 13 5 24 10 24 6 0 10 11 10 25 l0 25 155 0 c184 0 195 5
195 90 0 84 -9 88 -177 88 -152 0 -173 6 -173 51 0 12 -4 21 -10 21 -5 0 -9
11 -8 25 1 14 6 25 10 25 12 0 10 38 -2 45 -5 3 -10 17 -10 31 0 14 4 22 10
19 14 -9 13 48 -2 63 -9 9 -9 12 0 12 7 0 12 15 12 40 l0 39 153 4 c219 6 247
17 247 102 0 25 -3 45 -8 45 -4 0 -12 10 -17 23 -10 21 -16 22 -142 25 -86 2
-133 -1 -133 -8 0 -5 -7 -10 -16 -10 -8 0 -12 5 -9 10 4 6 -42 10 -132 10
-117 -1 -140 -3 -153 -18z"/>
<path d="M6418 1879 c-16 -17 -18 -49 -18 -349 0 -189 -4 -330 -9 -330 -5 0
-12 -56 -16 -125 -4 -69 -11 -125 -16 -125 -5 0 -9 -20 -9 -44 0 -37 -6 -50
-39 -85 -24 -26 -51 -44 -72 -48 -53 -10 -69 -36 -69 -110 0 -49 3 -63 15 -63
8 0 15 -4 15 -10 0 -5 11 -10 25 -10 14 0 25 5 25 10 0 6 32 10 75 10 41 0 75
4 75 9 0 5 10 13 23 17 24 7 68 54 62 64 -2 4 5 13 16 20 10 8 19 20 19 27 0
7 7 13 15 13 12 0 15 16 15 84 0 65 3 85 15 90 8 3 15 17 15 31 0 14 4 25 9
25 5 0 9 48 10 108 1 59 6 109 11 110 6 2 10 87 10 206 0 246 5 296 31 296 11
0 19 5 19 10 0 16 70 12 87 -5 13 -13 15 -88 16 -553 2 -621 -7 -569 105 -579
55 -4 71 -2 84 11 9 9 21 16 27 16 8 0 11 189 11 630 0 617 0 630 -20 650 -19
19 -33 20 -282 19 -246 -1 -264 -2 -280 -20z"/>
<path d="M7280 1890 c0 -5 -7 -10 -15 -10 -13 0 -15 -64 -15 -515 0 -337 3
-515 10 -515 6 0 10 -11 10 -25 0 -14 -4 -25 -10 -25 -6 0 -10 -39 -10 -96 0
-136 -14 -129 248 -129 163 0 216 3 220 13 2 6 15 12 29 12 13 0 31 6 38 12
33 30 45 38 55 38 5 0 10 7 10 15 0 8 7 15 16 15 8 0 12 5 9 10 -3 6 1 10 9
10 9 0 16 5 16 11 0 6 7 17 15 25 8 9 15 26 15 40 0 13 5 24 10 24 6 0 10 68
10 185 0 106 -4 185 -9 185 -5 0 -12 14 -16 30 -4 17 -11 28 -16 24 -5 -3 -9
0 -9 6 0 16 -80 94 -99 97 -9 1 -17 7 -19 12 -2 6 -21 11 -42 11 -21 0 -40 4
-42 10 -1 5 -47 10 -100 11 -73 1 -98 5 -98 14 0 8 -5 15 -12 17 -9 3 -13 61
-15 214 -1 115 -2 222 -3 237 0 16 -4 26 -10 22 -5 -3 -10 1 -10 9 0 13 -15
16 -85 16 -50 0 -85 -4 -85 -10z m388 -729 c2 -6 10 -11 18 -11 8 0 14 -6 14
-14 0 -8 5 -16 10 -18 6 -2 13 -35 17 -74 7 -82 -4 -207 -18 -199 -5 4 -9 -5
-9 -19 0 -16 -6 -26 -15 -26 -8 0 -15 -4 -15 -9 0 -13 -82 -41 -123 -41 -21 0
-36 4 -32 9 3 5 -3 12 -14 16 -19 6 -31 48 -31 118 0 20 -4 37 -10 37 -13 0
-13 37 0 42 5 2 11 40 13 85 3 72 6 85 28 104 21 18 33 20 94 16 38 -2 71 -10
73 -16z"/>
<path d="M9063 1885 c-16 -18 -19 -955 -3 -955 6 0 10 -13 10 -30 0 -16 -4
-30 -10 -30 -6 0 -10 -50 -10 -131 0 -160 2 -164 101 -163 66 0 99 15 99 43 0
6 5 11 10 11 6 0 10 26 10 59 0 40 5 65 15 75 8 8 15 24 15 35 0 12 5 21 10
21 6 0 10 6 10 14 0 7 7 19 15 26 8 7 15 23 15 37 0 14 4 21 10 18 6 -3 10 3
10 14 0 11 6 26 13 33 15 16 41 70 39 81 -1 4 5 7 13 7 11 0 15 11 15 36 0 19
6 42 13 49 29 33 37 45 37 54 0 5 5 11 10 13 6 2 12 13 13 26 0 12 7 22 14 22
7 0 13 7 13 16 0 11 5 14 16 10 9 -3 20 -6 25 -6 5 0 9 -34 8 -75 -1 -41 -5
-75 -10 -75 -14 0 -11 -48 4 -54 10 -5 10 -7 0 -12 -10 -4 -13 -53 -13 -195 0
-124 3 -188 10 -184 6 4 10 -13 10 -43 0 -49 0 -49 37 -55 44 -7 113 2 113 14
0 5 11 9 25 9 l25 0 -2 648 -3 647 -96 3 -96 3 -7 -53 c-4 -29 -10 -72 -13
-96 -3 -24 -11 -46 -19 -49 -8 -3 -14 -16 -14 -29 0 -13 -4 -24 -9 -24 -5 0
-12 -11 -15 -25 -4 -14 -11 -25 -16 -25 -6 0 -10 -11 -10 -25 0 -14 -4 -25 -9
-25 -5 0 -12 -11 -15 -25 -4 -14 -11 -25 -16 -25 -6 0 -10 -11 -10 -25 0 -14
-4 -25 -10 -25 -5 0 -12 -11 -16 -25 -3 -14 -10 -25 -15 -25 -5 0 -9 -11 -9
-25 0 -14 -4 -25 -10 -25 -5 0 -12 -11 -16 -25 -3 -14 -10 -25 -15 -25 -5 0
-9 -11 -9 -25 0 -14 -4 -25 -10 -25 -5 0 -10 -11 -10 -25 0 -16 -6 -25 -15
-25 -8 0 -15 -7 -15 -15 0 -10 -9 -14 -25 -13 -22 2 -25 7 -25 40 0 21 5 38
10 38 6 0 10 103 10 290 0 292 -2 309 -37 347 -17 19 -154 17 -170 -2z"/>
</g>
</svg>
